# xmcd
#
# Track frame offsets:
#	150
#	15266
#	35363
#	50608
#	65670
#	83318
#	95728
#	111717
#	136565
#	154199
#	168561
#	187539
#
# Disc length: 2767 seconds
#
# Revision: 0
# Processed by: cddbd v1.5.2PL0 Copyright (c) Steve Scherf et al.
# Submitted via: dBpowerAMP V4.0
#
DISCID=8e0acd0c
DTITLE=Carlos Gardel - Gardel x Maria Grana
DYEAR=1900
DGENRE=
TTITLE0=Mi Buenos Aires Querido
TTITLE1=Cuesta Abajo
TTITLE2=Golondrinas
TTITLE3=Arrabal Amargo
TTITLE4=El Dia Que Me Quieras
TTITLE5=Tomo y Obligo
TTITLE6=Volió Una Noche
TTITLE7=Cuando Tú No Estás
TTITLE8=Por Una Cabeza
TTITLE9=Soledad
TTITLE10=Mano A Mano
TTITLE11=Volver
EXTD=
EXTT0=
EXTT1=
EXTT2=
EXTT3=
EXTT4=
EXTT5=
EXTT6=
EXTT7=
EXTT8=
EXTT9=
EXTT10=
EXTT11=
PLAYORDER=
